<?xml version="1.0" standalone="no"?><!DOCTYPE svg PUBLIC "-//W3C//DTD SVG 1.1//EN" "http://www.w3.org/Graphics/SVG/1.1/DTD/svg11.dtd"><svg t="1639114625214" class="icon" viewBox="0 0 1143 1024" version="1.1" xmlns="http://www.w3.org/2000/svg" p-id="17757" xmlns:xlink="http://www.w3.org/1999/xlink" width="223.2421875" height="200"><defs><style type="text/css"></style></defs><path d="M438.176744 38.102326l285.767442 126.213953c9.525581 4.762791 14.288372 14.288372 14.288372 23.813954v771.572093c0 14.288372-9.525581 23.813953-23.813953 23.813953-4.762791 0-7.144186 0-11.906977-2.381395l-285.767442-164.316279c-7.144186-7.144186-11.906977-14.288372-11.906977-23.813954V59.534884c0-14.288372 9.525581-23.813953 23.813954-23.813954 2.381395 0 7.144186 2.381395 9.525581 2.381396z" fill="#FFFFFF" p-id="17758"></path><path d="M714.418605 1019.237209c-9.525581 0-21.432558-2.381395-28.576745-7.144186l-285.767441-164.316279c-19.051163-9.525581-30.95814-30.95814-30.95814-52.390697V59.534884C369.116279 28.576744 395.311628 0 428.651163 0c9.525581 0 16.669767 2.381395 23.813953 4.762791l285.767442 126.213953c21.432558 9.525581 35.72093 30.95814 35.72093 54.772093v771.572093c0 33.339535-26.195349 61.916279-59.534883 61.916279z m-273.860465-230.995349l261.953488 150.027907V195.274419l-261.953488-116.688372v709.655813z" fill="#333333" p-id="17759"></path><path d="M1062.102326 38.102326L752.52093 166.697674c-9.525581 2.381395-14.288372 11.906977-14.288372 21.432559v771.572093c0 14.288372 9.525581 23.813953 23.813954 23.813953 4.762791 0 7.144186 0 11.906976-2.381395l309.581396-166.697675c7.144186-4.762791 11.906977-11.906977 11.906976-21.432558V59.534884c0-14.288372-9.525581-23.813953-23.813953-23.813954-2.381395 0-7.144186 0-9.525581 2.381396z" fill="#FFFFFF" p-id="17760"></path><path d="M762.046512 1019.237209c-33.339535 0-59.534884-26.195349-59.534884-59.534883V188.130233c0-23.813953 14.288372-45.246512 35.72093-54.772093L1047.813953 4.762791c7.144186-2.381395 16.669767-4.762791 23.813954-4.762791 33.339535 0 59.534884 26.195349 59.534884 59.534884v733.469767c0 21.432558-11.906977 42.865116-30.95814 52.390698l-309.581395 166.697674c-9.525581 4.762791-19.051163 7.144186-28.576744 7.144186z m-4.762791-69.060465z m16.669767-754.902325v745.376744l285.767442-154.790698V76.204651l-285.767442 119.069768z" fill="#333333" p-id="17761"></path><path d="M371.497674 38.102326L61.916279 166.697674c-9.525581 2.381395-14.288372 11.906977-14.288372 21.432559v771.572093c0 14.288372 9.525581 23.813953 23.813953 23.813953 4.762791 0 7.144186 0 11.906977-2.381395l309.581396-166.697675c7.144186-4.762791 11.906977-11.906977 11.906976-21.432558V59.534884c0-14.288372-9.525581-23.813953-23.813953-23.813954-2.381395 0-7.144186 0-9.525582 2.381396z" fill="#EA5406" p-id="17762"></path><path d="M71.44186 1019.237209c-33.339535 0-59.534884-26.195349-59.534883-59.534883V188.130233c0-23.813953 14.288372-45.246512 35.72093-54.772093L357.209302 4.762791c7.144186-2.381395 16.669767-4.762791 23.813954-4.762791 33.339535 0 59.534884 26.195349 59.534884 59.534884v733.469767c0 21.432558-11.906977 42.865116-30.95814 52.390698l-309.581395 166.697674c-9.525581 4.762791-19.051163 7.144186-28.576745 7.144186z m-4.76279-69.060465z m16.669767-754.902325v745.376744l285.767442-154.790698V76.204651l-285.767442 119.069768z" fill="#333333" p-id="17763"></path><path d="M190.511628 392.930233c-11.906977 0-23.813953-7.144186-30.95814-16.669768-9.525581-16.669767-4.762791-38.102326 11.906977-50.009302l119.069768-71.441861c16.669767-9.525581 38.102326-4.762791 50.009302 11.906977 9.525581 16.669767 4.762791 38.102326-11.906977 50.009302l-119.069767 71.441861c-7.144186 2.381395-11.906977 4.762791-19.051163 4.762791z" fill="#FFFFFF" p-id="17764"></path><path d="M190.511628 535.813953c-11.906977 0-23.813953-7.144186-30.95814-16.669767-9.525581-16.669767-4.762791-38.102326 11.906977-50.009302l119.069768-71.441861c16.669767-9.525581 38.102326-4.762791 50.009302 11.906977 9.525581 16.669767 4.762791 38.102326-11.906977 50.009302l-119.069767 71.441861c-7.144186 2.381395-11.906977 4.762791-19.051163 4.76279z" fill="#FFFFFF" p-id="17765"></path></svg>